<svg width="24" height="24" viewBox="0 0 24 24" fill="none" xmlns="http://www.w3.org/2000/svg">
<g clip-path="url(#clip0_33_9036)">
<path d="M17.8801 2.09105C18.1566 1.44886 17.9504 0.698862 17.3832 0.286362C16.816 -0.126138 16.0426 -0.0886384 15.5129 0.370737L3.51288 10.8707C3.04413 11.2832 2.87538 11.9442 3.09569 12.5254C3.31601 13.1067 3.87851 13.5004 4.50194 13.5004H9.72851L6.12382 21.9098C5.84726 22.552 6.05351 23.302 6.62069 23.7145C7.18788 24.127 7.96132 24.0895 8.49101 23.6301L20.491 13.1301C20.9598 12.7176 21.1285 12.0567 20.9082 11.4754C20.6879 10.8942 20.1301 10.5051 19.5019 10.5051H14.2754L17.8801 2.09105Z" fill="black"/>
</g>
<defs>
<clipPath id="clip0_33_9036">
<rect width="24" height="24" fill="white"/>
</clipPath>
</defs>
</svg>
