<svg width="24" height="24" viewBox="0 0 24 24" fill="none" xmlns="http://www.w3.org/2000/svg">
<path d="M20.4609 12.0234L20.4281 11.9344C18.8344 7.5375 16.2188 3.58594 12.8016 0.398438L12.6469 0.257812C12.4734 0.09375 12.2391 0 12 0C11.7609 0 11.5266 0.09375 11.3531 0.257812L11.1984 0.398438C7.78125 3.58594 5.16563 7.5375 3.57187 11.9344L3.53906 12.0234C3.18281 12.9984 3 14.0344 3 15.075C3 20.0016 7.06875 24 12 24C16.9312 24 21 20.0016 21 15.075C21 14.0344 20.8172 13.0031 20.4609 12.0234ZM11.85 6.95156C11.9438 6.825 12.0938 6.75 12.2484 6.75C12.525 6.75 12.75 6.975 12.75 7.25156V7.78594C12.75 8.20312 12.9187 8.60156 13.2141 8.89219L15.6281 11.2687C16.6641 12.2906 17.25 13.6875 17.25 15.1406C17.25 17.9625 14.9625 20.25 12.1406 20.25H12C9.09844 20.25 6.75 17.9016 6.75 15V14.6156C6.75 13.6219 7.11563 12.6656 7.77188 11.925L8.09531 11.5594C8.19375 11.4469 8.33437 11.3859 8.48438 11.3859C8.77031 11.3859 9 11.6156 9 11.9016V13.9641C9 15.1031 9.92813 16.0266 11.0672 16.0266C12.2016 16.0266 13.125 15.1078 13.125 13.9734C13.125 13.4297 12.9094 12.9047 12.525 12.5203L11.9062 11.9016C11.25 11.2453 10.8797 10.35 10.8797 9.41719C10.8797 8.65781 11.1281 7.91719 11.5828 7.3125L11.8547 6.94687L11.85 6.95156Z" fill="black"/>
</svg>
