<svg width="24" height="24" viewBox="0 0 24 24" fill="none" xmlns="http://www.w3.org/2000/svg">
<path d="M11.9578 0C6.73828 4.75313 3 10.3547 3 14.0859C3 19.9219 6.70312 24 12 24C17.2969 24 21 19.9219 21 14.0859C21 10.3406 17.2359 4.72969 11.9578 0ZM12 21.75C7.96266 21.75 5.25 18.668 5.25 14.0859C5.25 11.918 7.37109 7.68281 12 3.09844C16.0406 7.125 18.75 11.4797 18.75 14.0859C18.75 18.6656 16.0359 21.75 12 21.75ZM14.1141 11.2313C13.1766 10.4344 12.2977 9.68437 12.2977 8.50688C12.2977 8.34286 12.1688 8.28422 12.1102 8.26664C12 8.23125 11.8406 8.24063 11.7375 8.38125C9.16406 11.8781 13.125 11.625 13.125 14.1562C13.125 15.2437 12.2438 16.125 11.1141 16.125C10.0688 16.125 9.1875 15.2437 9.1875 14.1562V12.75C9.1875 12.6387 9.11719 12.5332 9.01172 12.4922C8.86406 12.4453 8.78906 12.4687 8.70938 12.5531C8.40938 12.8437 7.5 13.8047 7.5 15.3563C7.5 17.6438 9.51562 19.5 12 19.5C14.4844 19.5 16.5 17.6423 16.5 15.3572C16.5 13.275 15.2859 12.2391 14.1141 11.2313Z" fill="black"/>
</svg>
