<svg width="24" height="24" viewBox="0 0 24 24" fill="none" xmlns="http://www.w3.org/2000/svg">
<path d="M5.625 1.5C6.66094 1.5 7.5 2.33953 7.5 3.375V5.625C7.5 6.66094 6.66094 7.5 5.625 7.5H3.375C2.33953 7.5 1.5 6.66094 1.5 5.625V3.375C1.5 2.33953 2.33953 1.5 3.375 1.5H5.625ZM5.625 3.375H3.375V5.625H5.625V3.375ZM5.625 9C6.66094 9 7.5 9.83906 7.5 10.875V13.125C7.5 14.1609 6.66094 15 5.625 15H3.375C2.33953 15 1.5 14.1609 1.5 13.125V10.875C1.5 9.83906 2.33953 9 3.375 9H5.625ZM5.625 10.875H3.375V13.125H5.625V10.875ZM1.5 18.375C1.5 17.3391 2.33953 16.5 3.375 16.5H5.625C6.66094 16.5 7.5 17.3391 7.5 18.375V20.625C7.5 21.6609 6.66094 22.5 5.625 22.5H3.375C2.33953 22.5 1.5 21.6609 1.5 20.625V18.375ZM3.375 20.625H5.625V18.375H3.375V20.625ZM13.125 1.5C14.1609 1.5 15 2.33953 15 3.375V5.625C15 6.66094 14.1609 7.5 13.125 7.5H10.875C9.83906 7.5 9 6.66094 9 5.625V3.375C9 2.33953 9.83906 1.5 10.875 1.5H13.125ZM13.125 3.375H10.875V5.625H13.125V3.375ZM9 10.875C9 9.83906 9.83906 9 10.875 9H13.125C14.1609 9 15 9.83906 15 10.875V13.125C15 14.1609 14.1609 15 13.125 15H10.875C9.83906 15 9 14.1609 9 13.125V10.875ZM10.875 13.125H13.125V10.875H10.875V13.125ZM13.125 16.5C14.1609 16.5 15 17.3391 15 18.375V20.625C15 21.6609 14.1609 22.5 13.125 22.5H10.875C9.83906 22.5 9 21.6609 9 20.625V18.375C9 17.3391 9.83906 16.5 10.875 16.5H13.125ZM13.125 18.375H10.875V20.625H13.125V18.375ZM16.5 3.375C16.5 2.33953 17.3391 1.5 18.375 1.5H20.625C21.6609 1.5 22.5 2.33953 22.5 3.375V5.625C22.5 6.66094 21.6609 7.5 20.625 7.5H18.375C17.3391 7.5 16.5 6.66094 16.5 5.625V3.375ZM18.375 5.625H20.625V3.375H18.375V5.625ZM20.625 9C21.6609 9 22.5 9.83906 22.5 10.875V13.125C22.5 14.1609 21.6609 15 20.625 15H18.375C17.3391 15 16.5 14.1609 16.5 13.125V10.875C16.5 9.83906 17.3391 9 18.375 9H20.625ZM20.625 10.875H18.375V13.125H20.625V10.875ZM16.5 18.375C16.5 17.3391 17.3391 16.5 18.375 16.5H20.625C21.6609 16.5 22.5 17.3391 22.5 18.375V20.625C22.5 21.6609 21.6609 22.5 20.625 22.5H18.375C17.3391 22.5 16.5 21.6609 16.5 20.625V18.375ZM18.375 20.625H20.625V18.375H18.375V20.625Z" fill="black"/>
</svg>
