<svg width="24" height="24" viewBox="0 0 24 24" fill="none" xmlns="http://www.w3.org/2000/svg">
<path d="M1 3.875C1 2.83906 1.83906 2 2.875 2H5.125C6.16094 2 7 2.83906 7 3.875V6.125C7 7.16094 6.16094 8 5.125 8H2.875C1.83906 8 1 7.16094 1 6.125V3.875ZM1 11.375C1 10.3391 1.83906 9.5 2.875 9.5H5.125C6.16094 9.5 7 10.3391 7 11.375V13.625C7 14.6609 6.16094 15.5 5.125 15.5H2.875C1.83906 15.5 1 14.6609 1 13.625V11.375ZM7 18.875V21.125C7 22.1609 6.16094 23 5.125 23H2.875C1.83906 23 1 22.1609 1 21.125V18.875C1 17.8391 1.83906 17 2.875 17H5.125C6.16094 17 7 17.8391 7 18.875ZM8.5 3.875C8.5 2.83906 9.33906 2 10.375 2H12.625C13.6609 2 14.5 2.83906 14.5 3.875V6.125C14.5 7.16094 13.6609 8 12.625 8H10.375C9.33906 8 8.5 7.16094 8.5 6.125V3.875ZM14.5 11.375V13.625C14.5 14.6609 13.6609 15.5 12.625 15.5H10.375C9.33906 15.5 8.5 14.6609 8.5 13.625V11.375C8.5 10.3391 9.33906 9.5 10.375 9.5H12.625C13.6609 9.5 14.5 10.3391 14.5 11.375ZM8.5 18.875C8.5 17.8391 9.33906 17 10.375 17H12.625C13.6609 17 14.5 17.8391 14.5 18.875V21.125C14.5 22.1609 13.6609 23 12.625 23H10.375C9.33906 23 8.5 22.1609 8.5 21.125V18.875ZM22 3.875V6.125C22 7.16094 21.1609 8 20.125 8H17.875C16.8391 8 16 7.16094 16 6.125V3.875C16 2.83906 16.8391 2 17.875 2H20.125C21.1609 2 22 2.83906 22 3.875ZM16 11.375C16 10.3391 16.8391 9.5 17.875 9.5H20.125C21.1609 9.5 22 10.3391 22 11.375V13.625C22 14.6609 21.1609 15.5 20.125 15.5H17.875C16.8391 15.5 16 14.6609 16 13.625V11.375ZM22 18.875V21.125C22 22.1609 21.1609 23 20.125 23H17.875C16.8391 23 16 22.1609 16 21.125V18.875C16 17.8391 16.8391 17 17.875 17H20.125C21.1609 17 22 17.8391 22 18.875Z" fill="black"/>
</svg>
