<svg width="24" height="24" viewBox="0 0 24 24" fill="none" xmlns="http://www.w3.org/2000/svg">
<g clip-path="url(#clip0_33_9054)">
<path d="M8.27813 4.19719C8.30625 4.25391 8.37187 4.34297 8.49844 4.45687C8.5125 4.47234 8.53125 4.48828 8.55 4.50422C7.67812 4.52109 6.82031 4.58625 6 4.69687V4.08281C6 3.28031 6.45469 2.60531 6.98906 2.12156C7.52813 1.63687 8.24531 1.2525 9.03281 0.9525C10.6125 0.349406 12.7266 0 15 0C17.2734 0 19.3875 0.349406 20.9672 0.9525C21.7547 1.2525 22.4719 1.63687 23.0109 2.12156C23.5453 2.60531 24 3.28031 24 4.08281V13.8328C24 14.7188 23.5453 15.3938 23.0109 15.8766C22.4719 16.3641 21.7547 16.7484 20.9672 17.0484C20.5172 17.2172 20.025 17.3719 19.5 17.4984V15.1688C19.7391 15.0984 19.9594 15.0234 20.1656 14.9437C20.8078 14.7 21.2438 14.4422 21.5016 14.2078C21.6281 14.0953 21.6938 14.0016 21.7219 13.9453C21.75 13.8984 21.75 13.875 21.75 13.8328V11.8312C21.5016 11.9578 21.2391 12.0703 20.9672 12.1734C20.5172 12.3422 20.025 12.4969 19.5 12.6234V10.2938C19.7391 10.2234 19.9594 10.1484 20.1656 10.0688C20.8078 9.825 21.2438 9.56719 21.5016 9.33281C21.6281 9.22031 21.6938 9.12656 21.7219 9.07031C21.7453 9.02812 21.7078 9.00469 21.75 8.95781V6.95625C21.5016 7.08281 21.2391 7.19531 20.9672 7.29844C20.325 7.54219 19.5516 7.74844 18.7969 7.90313C18.5578 7.54688 18.2812 7.25156 18.0141 7.00781C17.5406 6.58125 16.9875 6.19219 16.4156 5.94844C17.9016 5.84063 19.2 5.56406 20.1656 5.19375C20.8078 4.95 21.2438 4.69219 21.5016 4.45687C21.6281 4.34297 21.6938 4.25391 21.7219 4.19719C21.7453 4.15359 21.7078 4.13016 21.75 4.08281C21.75 4.12406 21.75 4.10297 21.7219 4.05281C21.6938 3.99609 21.6281 3.90656 21.5016 3.79312C21.2438 3.55969 20.8078 3.29766 20.1656 3.05484C18.9 2.57203 17.0719 2.20781 15 2.20781C12.9281 2.20781 11.1 2.57203 9.82969 3.05484C9.19219 3.29766 8.75625 3.55969 8.49844 3.79312C8.37187 3.90656 8.30625 3.99609 8.27813 4.05281C8.20781 4.10297 8.20781 4.12406 8.20781 4.08281C8.25 4.13062 8.25469 4.15359 8.27813 4.19719ZM0 10.0828C0 9.23906 0.453469 8.60625 0.990937 8.12344C1.52859 7.63594 2.24344 7.25156 3.03094 6.95156C4.61391 6.35156 6.72656 6 9 6C11.2734 6 13.3875 6.35156 14.9672 6.95156C15.7547 7.25156 16.4719 7.63594 17.0109 8.12344C17.5453 8.60625 18 9.23906 18 10.0828V19.875C18 20.7188 17.5453 21.3938 17.0109 21.8766C16.4719 22.3641 15.7547 22.7484 14.9672 23.0484C13.3875 23.6484 11.2734 24 9 24C6.72656 24 4.61391 23.6484 3.03094 23.0484C2.24344 22.7484 1.52859 22.3641 0.990937 21.8766C0.453469 21.3938 0 20.7188 0 19.875V10.0828ZM2.27625 10.1953C2.30625 10.2516 2.37047 10.3453 2.49656 10.4578C2.75578 10.6922 3.19453 10.95 3.83203 11.1938C5.1 11.6766 6.92812 11.9578 9 11.9578C11.0719 11.9578 12.9 11.6766 14.1656 11.1938C14.8078 10.95 15.2438 10.6922 15.5016 10.4578C15.6281 10.3453 15.6937 10.2516 15.7219 10.1953C15.7453 10.1531 15.7078 10.1297 15.75 10.0828C15.75 10.0828 15.75 10.1016 15.7219 10.0547C15.6937 9.99844 15.6281 9.90469 15.5016 9.79219C15.2438 9.55781 14.8078 9.3 14.1656 9.05625C12.9 8.57344 11.0719 8.25 9 8.25C6.92812 8.25 5.1 8.57344 3.83203 9.05625C3.19453 9.3 2.75578 9.55781 2.49656 9.79219C2.37047 9.90469 2.30625 9.99844 2.27625 10.0547C2.24906 10.1016 2.20781 10.0828 2.25 10.0828C2.25 10.1297 2.25234 10.1531 2.27625 10.1953ZM15.75 12.9562C15.5016 13.0828 15.2391 13.1953 14.9672 13.2984C13.3875 13.8984 11.2734 14.2078 9 14.2078C6.72656 14.2078 4.61391 13.8984 3.03094 13.2984C2.76094 13.1953 2.49891 13.0828 2.25 12.9562V15C2.25 15.0047 2.25234 15.0281 2.27625 15.0703C2.30625 15.1266 2.37047 15.2203 2.49656 15.3328C2.75578 15.5672 3.19453 15.825 3.83203 16.0687C5.1 16.5516 6.92812 16.875 9 16.875C11.0719 16.875 12.9 16.5516 14.1656 16.0687C14.8078 15.825 15.2438 15.5672 15.5016 15.3328C15.6281 15.2203 15.6937 15.1266 15.7219 15.0703C15.7453 15.0281 15.7078 15.0047 15.75 15V12.9562ZM3.03094 18.1734C2.76094 18.0703 2.49891 17.9578 2.25 17.8312V19.875C2.20781 19.875 2.24906 19.8984 2.27625 19.9453C2.30625 20.0016 2.37047 20.0953 2.49656 20.2078C2.75578 20.4422 3.19453 20.7 3.83203 20.9437C5.1 21.4266 6.92812 21.75 9 21.75C11.0719 21.75 12.9 21.4266 14.1656 20.9437C14.8078 20.7 15.2438 20.4422 15.5016 20.2078C15.6281 20.0953 15.6937 20.0016 15.7219 19.9453C15.75 19.8984 15.75 19.875 15.75 19.875V17.8312C15.5016 17.9578 15.2391 18.0703 14.9672 18.1734C13.3875 18.7734 11.2734 19.125 8.95781 19.125C6.72656 19.125 4.61391 18.7734 3.03094 18.1734Z" fill="black"/>
</g>
<defs>
<clipPath id="clip0_33_9054">
<rect width="24" height="24" fill="white"/>
</clipPath>
</defs>
</svg>
