<svg width="24" height="24" viewBox="0 0 24 24" fill="none" xmlns="http://www.w3.org/2000/svg">
<path d="M13.2487 16.1939L12.72 19.1302L9.6 16.9664L6.48 19.1302L5.805 15.3941L2.06962 14.7191L4.23375 11.5664L2.07112 8.48018L5.8065 7.80518L6.4815 4.06905L9.6 6.23393L12.7181 4.0683L13.3939 7.80555L14.4746 8.00081C15.1012 7.39268 15.9112 6.93143 16.8 6.80018L14.943 6.25718L14.3846 3.1668C14.2991 2.6898 13.9811 2.29493 13.5337 2.10855C13.0849 1.92345 12.5805 1.97738 12.1792 2.2527L9.6 4.04355L7.02 2.25176C6.61875 1.97762 6.11625 1.92371 5.66625 2.10878C5.21925 2.29519 4.90125 2.69003 4.815 3.1659L4.25662 6.2574L1.16812 6.81518C0.690746 6.90143 0.294521 7.22018 0.108746 7.67018C-0.0769162 8.11793 -0.0225037 8.62418 0.254059 9.02243L2.04393 11.6017L0.253309 14.1821C-0.0226537 14.5803 -0.0765037 15.0866 0.109159 15.5343C0.295496 15.9821 0.691159 16.3008 1.16741 16.3863L4.25703 16.9443L4.81541 20.0347C4.90155 20.5117 5.21966 20.9066 5.66666 21.0929C6.11478 21.2769 6.62066 21.2253 7.02003 20.9488L9.6 19.1564L12.1811 20.9482C12.4237 21.1139 12.705 21.2002 12.9862 21.2002C13.1702 21.2002 13.356 21.1638 13.5322 21.0912C13.9792 20.9049 14.2972 20.51 14.3835 20.0341L15.0495 16.3988L14.4 16.3664C13.995 16.3664 13.6125 16.3177 13.2487 16.1939ZM9.6 9.20018C10.5022 9.20018 11.2807 9.7068 11.6902 10.4452C12.0877 9.98843 12.5966 9.6363 13.1764 9.4248C12.4387 8.21393 11.1187 7.40018 9.6 7.40018C7.28062 7.40018 5.43375 9.28043 5.43375 11.5664C5.43375 13.8858 7.31437 15.7327 9.6 15.7327C10.3834 15.7327 11.1079 15.5041 11.7356 15.1308C11.3347 14.6861 11.0407 14.1464 10.9005 13.5442C10.5262 13.8539 10.08 13.9664 9.6 13.9664C8.277 13.9664 7.20037 12.8898 7.20037 11.5668C7.20037 10.2438 8.27625 9.20018 9.6 9.20018ZM21.6 10.3664C21.15 10.3664 20.733 10.4977 20.3719 10.7133C20.2425 9.20768 18.9712 7.96643 17.4 7.96643C15.9469 7.96643 14.7326 9.00255 14.4607 10.3758C14.442 10.3758 14.4232 10.3664 14.3998 10.3664C13.0779 10.3664 11.9998 11.4446 11.9998 12.7664C11.9998 14.0883 13.0779 15.1664 14.3998 15.1664H21.5998C22.9217 15.1664 23.9998 14.0883 23.9998 12.7664C23.9998 11.4446 22.9237 10.3664 21.6 10.3664Z" fill="black"/>
</svg>
