<svg width="24" height="24" viewBox="0 0 24 24" fill="none" xmlns="http://www.w3.org/2000/svg">
<g clip-path="url(#clip0_33_9044)">
<path d="M13.5576 2.04639C13.7451 2.12514 13.8801 2.29389 13.9176 2.49264L14.6639 6.53889L18.7101 7.28139C18.9089 7.31889 19.0776 7.45389 19.1564 7.64139C19.2351 7.82889 19.2126 8.04264 19.0964 8.21139L18.3426 9.30264C18.0389 9.23889 17.7239 9.20139 17.4014 9.20139C16.1676 9.20139 15.0614 9.73389 14.2926 10.5776C13.8239 8.41764 11.9001 6.80139 9.60139 6.80139C6.95014 6.80139 4.80139 8.95014 4.80139 11.6014C4.80139 14.2526 6.95014 16.4014 9.60139 16.4014C10.0664 16.4014 10.5201 16.3339 10.9439 16.2101C11.3676 17.6651 12.6876 18.7414 14.2701 18.7976L13.9176 20.7101C13.8801 20.9089 13.7451 21.0776 13.5576 21.1564C13.3701 21.2351 13.1564 21.2126 12.9876 21.0964L9.60139 18.7601L6.21514 21.0964C6.04639 21.2126 5.83264 21.2351 5.64514 21.1564C5.45764 21.0776 5.32264 20.9089 5.28514 20.7101L4.53889 16.6639L0.492638 15.9176C0.293888 15.8801 0.125138 15.7451 0.0463884 15.5576C-0.0323616 15.3701 -0.00986159 15.1564 0.106388 14.9876L2.44264 11.6014L0.106388 8.21514C-0.00986159 8.04639 -0.0323616 7.83264 0.0463884 7.64514C0.125138 7.45764 0.293888 7.32264 0.492638 7.28514L4.53889 6.53889L5.28514 2.49264C5.32264 2.29389 5.45764 2.12514 5.64514 2.04639C5.83264 1.96764 6.04639 1.99014 6.21514 2.10639L9.60139 4.44264L12.9876 2.10639C13.1564 1.99014 13.3701 1.96764 13.5576 2.04639ZM13.2014 11.6014C13.2014 11.6726 13.1976 11.7401 13.1939 11.8076C11.8589 12.2801 10.8876 13.5176 10.8051 14.9951C10.4264 15.1301 10.0214 15.2014 9.59764 15.2014C7.61014 15.2014 5.99764 13.5889 5.99764 11.6014C5.99764 9.61389 7.61014 8.00139 9.59764 8.00139C11.5851 8.00139 13.1976 9.61389 13.1976 11.6014H13.2014ZM14.4014 17.6014C13.0776 17.6014 12.0014 16.5251 12.0014 15.2014C12.0014 13.8776 13.0776 12.8014 14.4014 12.8014C14.4201 12.8014 14.4426 12.8014 14.4614 12.8014C14.7389 11.4326 15.9501 10.4014 17.4014 10.4014C18.7139 10.4014 19.8314 11.2451 20.2364 12.4189C20.5626 12.2801 20.9226 12.2014 21.3014 12.2014C22.7939 12.2014 24.0014 13.4089 24.0014 14.9014C24.0014 16.3939 22.7939 17.6014 21.3014 17.6014H14.4014Z" fill="black"/>
</g>
<defs>
<clipPath id="clip0_33_9044">
<rect width="24" height="24" fill="white"/>
</clipPath>
</defs>
</svg>
