<svg width="36" height="37" viewBox="0 0 36 37" fill="none" xmlns="http://www.w3.org/2000/svg">
<path d="M12.2553 0.548972C5.32584 -0.546875 0.000164747 9.03471 2.4875e-05 17.067L0 32.5016C1.16094e-05 34.7107 1.79087 36.4999 3.99999 36.4999H32C34.2092 36.4999 36 34.7147 36 32.5056V13.1804C36 8.52786 33.1207 3.8243 29.1064 3.46391C25.4642 3.13693 25.0933 10.0269 21.4468 10.2654C16.7806 10.5706 16.8919 1.28221 12.2553 0.548972Z" fill="#F39F5A"/>
<path d="M12.2553 11.5C5.32581 10.7085 -0.000200925 16.0431 0 22.4651L2.19233e-05 32.5025C1.21958e-05 34.7116 1.79088 36.5 4.00003 36.5H32C34.2091 36.5 36 34.7128 36 32.5037V19.6581C36 15.8166 32.7909 11.5534 29.1064 12.6407C24.5 14 25.0933 22.2929 21.4468 22.4651C16.7805 22.6855 16.8919 12.0295 12.2553 11.5Z" fill="#AE445A"/>
</svg>
