<svg width="37" height="36" viewBox="0 0 37 36" fill="none" xmlns="http://www.w3.org/2000/svg">
<path fill-rule="evenodd" clip-rule="evenodd" d="M18.5 36C28.4411 36 36.5 27.9411 36.5 18C36.5 8.05887 28.4411 0 18.5 0V9C23.4706 9 27.5 13.0294 27.5 18C27.5 22.9706 23.4706 27 18.5 27V36Z" fill="#AE445A"/>
<path fill-rule="evenodd" clip-rule="evenodd" d="M18.5 26.9999V35.9999C8.55887 35.9999 0.5 27.941 0.5 17.9999C0.5 14.8736 1.297 11.9335 2.69891 9.37158L10.4989 13.8749C9.8605 15.1106 9.5 16.5131 9.5 17.9999C9.5 22.9704 13.5294 26.9999 18.5 26.9999Z" fill="#F39F5A"/>
<path fill-rule="evenodd" clip-rule="evenodd" d="M2.69873 9.37169L10.4987 13.875C11.9945 10.9794 15.016 9 18.4998 9V0C11.685 0 5.75468 3.78717 2.69873 9.37169Z" fill="#662549"/>
</svg>
