<svg width="36" height="18" viewBox="0 0 36 18" fill="none" xmlns="http://www.w3.org/2000/svg">
<path d="M27 18C27 13.0294 22.9706 9 18 9C13.0294 9 9 13.0294 9 18L-3.93402e-07 18C-1.76132e-07 8.05887 8.05887 1.76132e-07 18 3.93402e-07C23.5442 5.14575e-07 28.503 2.50658 31.8049 6.44831C34.4235 9.57437 36 13.6031 36 18L27 18Z" fill="#F39F5A"/>
<path d="M18 9C13.0294 9 9 13.0294 9 18L-3.93402e-07 18C-1.76132e-07 8.05887 8.05887 1.76132e-07 18 3.93402e-07C23.5442 5.14575e-07 28.503 2.50658 31.8049 6.44831L25.3944 12.8588C25.3944 12.8588 22.9706 9 18 9Z" fill="#AE445A"/>
</svg>
