<svg width="24" height="24" viewBox="0 0 24 24" fill="none" xmlns="http://www.w3.org/2000/svg">
<g clip-path="url(#clip0_61_12426)">
<path d="M14.25 1.125C14.25 1.74844 14.7516 2.25 15.375 2.25H20.1609L9.70312 12.7031C9.2625 13.1438 9.2625 13.8562 9.70312 14.2922C10.1438 14.7281 10.8562 14.7328 11.2922 14.2922L21.7453 3.83906V8.625C21.7453 9.24844 22.2469 9.75 22.8703 9.75C23.4937 9.75 23.9953 9.24844 23.9953 8.625V1.125C23.9953 0.501562 23.4937 0 22.8703 0H15.375C14.7516 0 14.25 0.501562 14.25 1.125ZM3.375 1.5C1.50938 1.5 0 3.00938 0 4.875V20.625C0 22.4906 1.50938 24 3.375 24H19.125C20.9906 24 22.5 22.4906 22.5 20.625V14.625C22.5 14.0016 21.9984 13.5 21.375 13.5C20.7516 13.5 20.25 14.0016 20.25 14.625V20.625C20.25 21.2484 19.7484 21.75 19.125 21.75H3.375C2.75156 21.75 2.25 21.2484 2.25 20.625V4.875C2.25 4.25156 2.75156 3.75 3.375 3.75H9.375C9.99844 3.75 10.5 3.24844 10.5 2.625C10.5 2.00156 9.99844 1.5 9.375 1.5H3.375Z" fill="black"/>
</g>
<defs>
<clipPath id="clip0_61_12426">
<rect width="24" height="24" fill="white"/>
</clipPath>
</defs>
</svg>
