<svg width="44" height="44" viewBox="0 0 44 44" fill="none" xmlns="http://www.w3.org/2000/svg">
<path d="M22.5283 10C23.3221 10 24.0591 10.4464 24.456 11.1161L36.7023 31.6518C37.0992 32.3772 37.0992 33.2143 36.7023 33.8839C36.3055 34.6094 35.5684 35 34.7747 35H10.282C9.43157 35 8.69453 34.6094 8.29765 33.8839C7.90078 33.2143 7.90078 32.3772 8.29765 31.6518L20.544 11.1161C20.9409 10.4464 21.6779 10 22.5283 10ZM22.5283 17.1429C21.7346 17.1429 21.1676 17.7567 21.1676 18.4821V24.7321C21.1676 25.5134 21.7346 26.0714 22.5283 26.0714C23.2654 26.0714 23.8891 25.5134 23.8891 24.7321V18.4821C23.8891 17.7567 23.2654 17.1429 22.5283 17.1429ZM24.3426 29.6429C24.3426 28.6942 23.4922 27.8571 22.5283 27.8571C21.5078 27.8571 20.7141 28.6942 20.7141 29.6429C20.7141 30.6473 21.5078 31.4286 22.5283 31.4286C23.4922 31.4286 24.3426 30.6473 24.3426 29.6429Z" fill="black"/>
</svg>
